<svg xmlns="http://www.w3.org/2000/svg" width="196" height="338" viewBox="0 0 196 338" fill="none">
  <g filter="url(#filter0_dd_10_4)">
    <path d="M92.7497 225.001L91.2497 225.001L91.2497 225.001L92.7497 225.001ZM92.7498 328L91.7877 329.151L93.6834 329.174L92.7498 328ZM12 191.5L13.5 191.5L13.5 191.5L12 191.5ZM12.0001 78.0505L13.5001 78.0505L13.5001 78.0505L12.0001 78.0505ZM173.094 264.104L174.028 265.278L174.028 265.278L173.094 264.104ZM185.625 202.001C185.625 197.582 182.043 194.001 177.625 194.001C173.206 194.001 169.625 197.582 169.625 202.001C169.625 206.419 173.206 210.001 177.625 210.001C182.043 210.001 185.625 206.419 185.625 202.001ZM16.3038 264.098L17.2658 262.947L17.2658 262.947L16.3038 264.098ZM12 254.891L10.5 254.891L10.5 254.891L12 254.891ZM105.054 140.512L105.939 141.723L105.939 141.723L105.054 140.512ZM185.625 87.5C185.625 83.0817 182.043 79.5 177.625 79.5C173.206 79.5 169.625 83.0817 169.625 87.5C169.625 91.9183 173.206 95.5 177.625 95.5C182.043 95.5 185.625 91.9183 185.625 87.5ZM19.2645 63.6023L18.3699 62.3983L18.3699 62.3983L19.2645 63.6023ZM79.9783 18.4896L80.8729 19.6936L80.8729 19.6936L79.9783 18.4896ZM92.7497 24.911L91.2497 24.911L91.2497 24.911L92.7497 24.911ZM100.75 69.0001C100.75 64.5819 97.168 61.0001 92.7497 61.0001C88.3315 61.0001 84.7497 64.5819 84.7497 69.0001C84.7497 73.4184 88.3315 77.0001 92.7497 77.0001C97.168 77.0001 100.75 73.4184 100.75 69.0001ZM92.7497 191.5L91.2497 191.5L91.2497 191.5L92.7497 191.5ZM92.7498 164.737L91.2498 164.737L91.2498 164.737L92.7498 164.737ZM91.2497 225.001L91.2498 328L94.2498 328L94.2497 225.001L91.2497 225.001ZM13.5 191.5L13.5001 78.0505L10.5001 78.0505L10.5 191.5L13.5 191.5ZM93.6834 329.174L174.028 265.278L172.16 262.93L91.8161 326.826L93.6834 329.174ZM179.125 254.712L179.125 202.001L176.125 202.001L176.125 254.712L179.125 254.712ZM93.7118 326.85L17.2658 262.947L15.3418 265.249L91.7877 329.151L93.7118 326.85ZM13.5 254.891L13.5 191.5L10.5 191.5L10.5 254.891L13.5 254.891ZM105.939 141.723L178.509 88.7112L176.74 86.2888L104.169 139.301L105.939 141.723ZM20.1592 64.8063L80.8729 19.6936L79.0837 17.2856L18.3699 62.3983L20.1592 64.8063ZM91.2497 24.911L91.2497 69.0001L94.2497 69.0001L94.2497 24.911L91.2497 24.911ZM94.2497 225.001L94.2497 191.5L91.2497 191.5L91.2497 225.001L94.2497 225.001ZM94.2497 191.5L94.2498 164.737L91.2498 164.737L91.2497 191.5L94.2497 191.5ZM80.8729 19.6936C85.1616 16.507 91.2496 19.5681 91.2497 24.911L94.2497 24.911C94.2496 17.1021 85.3517 12.6282 79.0837 17.2856L80.8729 19.6936ZM104.169 139.301C96.0498 145.232 91.2498 154.682 91.2498 164.737L94.2498 164.737C94.2498 155.64 98.5927 147.09 105.939 141.723L104.169 139.301ZM17.2658 262.947C14.8792 260.952 13.5 258.002 13.5 254.891L10.5 254.891C10.5 258.89 12.2733 262.684 15.3418 265.249L17.2658 262.947ZM174.028 265.278C177.248 262.716 179.125 258.826 179.125 254.712L176.125 254.712C176.125 257.912 174.665 260.938 172.16 262.93L174.028 265.278ZM13.5001 78.0505C13.5001 72.831 15.9697 67.9193 20.1592 64.8063L18.3699 62.3983C13.4187 66.0773 10.5001 71.882 10.5001 78.0505L13.5001 78.0505Z" fill="url(#paint0_diamond_10_4)"/>
  </g>
  <defs>
    <filter id="filter0_dd_10_4" x="0.5" y="0.393829" width="195.125" height="336.781" filterUnits="userSpaceOnUse" color-interpolation-filters="sRGB">
      <feFlood flood-opacity="0" result="BackgroundImageFix"/>
      <feColorMatrix in="SourceAlpha" type="matrix" values="0 0 0 0 0 0 0 0 0 0 0 0 0 0 0 0 0 0 127 0" result="hardAlpha"/>
      <feOffset dy="-5"/>
      <feGaussianBlur stdDeviation="5"/>
      <feComposite in2="hardAlpha" operator="out"/>
      <feColorMatrix type="matrix" values="0 0 0 0 0 0 0 0 0 0 0 0 0 0 0 0 0 0 0.15 0"/>
      <feBlend mode="normal" in2="BackgroundImageFix" result="effect1_dropShadow_10_4"/>
      <feColorMatrix in="SourceAlpha" type="matrix" values="0 0 0 0 0 0 0 0 0 0 0 0 0 0 0 0 0 0 127 0" result="hardAlpha"/>
      <feOffset dy="4"/>
      <feGaussianBlur stdDeviation="2"/>
      <feComposite in2="hardAlpha" operator="out"/>
      <feColorMatrix type="matrix" values="0 0 0 0 0 0 0 0 0 0 0 0 0 0 0 0 0 0 0.25 0"/>
      <feBlend mode="normal" in2="effect1_dropShadow_10_4" result="effect2_dropShadow_10_4"/>
      <feBlend mode="normal" in="SourceGraphic" in2="effect2_dropShadow_10_4" result="shape"/>
    </filter>
    <radialGradient id="paint0_diamond_10_4" cx="0" cy="0" r="1" gradientUnits="userSpaceOnUse" gradientTransform="translate(95 147) rotate(90) scale(252 214.845)">
      <stop stop-color="#A59191"/>
      <stop offset="0.396875" stop-color="#95807A" stop-opacity="0.940469"/>
      <stop offset="1" stop-color="#4A4141" stop-opacity="0.85"/>
    </radialGradient>
  </defs>
</svg>
